<svg xmlns="http://www.w3.org/2000/svg" viewBox="0 0 512 512" fill="none">
  <defs>
    <linearGradient id="bg-grad" x1="0%" y1="0%" x2="100%" y2="100%">
      <stop offset="0%" style="stop-color:#6366f1"/>
      <stop offset="50%" style="stop-color:#8b5cf6"/>
      <stop offset="100%" style="stop-color:#a78bfa"/>
    </linearGradient>
    <linearGradient id="shine" x1="0%" y1="0%" x2="100%" y2="100%">
      <stop offset="0%" style="stop-color:rgba(255,255,255,0.25)"/>
      <stop offset="100%" style="stop-color:rgba(255,255,255,0)"/>
    </linearGradient>
    <linearGradient id="tool-grad" x1="0%" y1="0%" x2="100%" y2="100%">
      <stop offset="0%" style="stop-color:#ffffff"/>
      <stop offset="100%" style="stop-color:#e0e7ff"/>
    </linearGradient>
    <filter id="glow">
      <feGaussianBlur stdDeviation="8" result="coloredBlur"/>
      <feMerge>
        <feMergeNode in="coloredBlur"/>
        <feMergeNode in="SourceGraphic"/>
      </feMerge>
    </filter>
    <filter id="inner-shadow">
      <feOffset dx="0" dy="2"/>
      <feGaussianBlur stdDeviation="3"/>
      <feComposite in2="SourceAlpha" operator="arithmetic" k2="-1" k3="1"/>
      <feColorMatrix values="0 0 0 0 0 0 0 0 0 0 0 0 0 0 0 0 0 0 0.15 0"/>
      <feBlend in2="SourceGraphic" mode="normal"/>
    </filter>
  </defs>
  
  <!-- Background rounded square -->
  <rect x="32" y="32" width="448" height="448" rx="96" ry="96" fill="url(#bg-grad)"/>
  
  <!-- Subtle shine overlay -->
  <rect x="32" y="32" width="448" height="224" rx="96" ry="96" fill="url(#shine)" opacity="0.5"/>
  
  <!-- Grid dots pattern (subtle) -->
  <g opacity="0.08" fill="white">
    <circle cx="120" cy="120" r="4"/><circle cx="170" cy="120" r="4"/><circle cx="220" cy="120" r="4"/>
    <circle cx="270" cy="120" r="4"/><circle cx="320" cy="120" r="4"/><circle cx="370" cy="120" r="4"/>
    <circle cx="120" cy="170" r="4"/><circle cx="170" cy="170" r="4"/><circle cx="220" cy="170" r="4"/>
    <circle cx="270" cy="170" r="4"/><circle cx="320" cy="170" r="4"/><circle cx="370" cy="170" r="4"/>
    <circle cx="120" cy="392" r="4"/><circle cx="170" cy="392" r="4"/><circle cx="220" cy="392" r="4"/>
    <circle cx="270" cy="392" r="4"/><circle cx="320" cy="392" r="4"/><circle cx="370" cy="392" r="4"/>
  </g>

  <!-- Main wrench icon (stylized) -->
  <g transform="translate(256, 248)" filter="glow">
    <!-- Hexagonal code bracket left -->
    <path d="M-100,-60 L-130,0 L-100,60" stroke="white" stroke-width="18" stroke-linecap="round" stroke-linejoin="round" fill="none" opacity="0.9"/>
    
    <!-- Hexagonal code bracket right -->
    <path d="M100,-60 L130,0 L100,60" stroke="white" stroke-width="18" stroke-linecap="round" stroke-linejoin="round" fill="none" opacity="0.9"/>
    
    <!-- Center wrench/tool icon -->
    <g transform="rotate(-45)">
      <!-- Wrench handle -->
      <rect x="-12" y="-8" width="80" height="16" rx="8" fill="white" opacity="0.95"/>
      <!-- Wrench head -->
      <path d="M60,-24 Q80,-24 80,-8 L80,8 Q80,24 60,24 L48,24 L48,-24 Z" fill="white" opacity="0.95"/>
      <!-- Wrench head cutout -->
      <path d="M58,-12 Q70,-12 70,-4 L70,4 Q70,12 58,12 L54,12 L54,-12 Z" fill="url(#bg-grad)" opacity="0.7"/>
    </g>
    
    <!-- Sparkle dots -->
    <circle cx="-50" cy="-80" r="6" fill="white" opacity="0.6"/>
    <circle cx="65" cy="-70" r="4" fill="white" opacity="0.4"/>
    <circle cx="-70" cy="75" r="5" fill="white" opacity="0.5"/>
    <circle cx="75" cy="80" r="3" fill="white" opacity="0.35"/>
  </g>
  
  <!-- Bottom text area accent line -->
  <rect x="180" y="380" width="152" height="3" rx="1.5" fill="white" opacity="0.2"/>
</svg>